<svg width="36" height="24" viewBox="0 0 36 24" fill="none" xmlns="http://www.w3.org/2000/svg">
<rect width="36" height="24" rx="2.4" fill="white"/>
<path fill-rule="evenodd" clip-rule="evenodd" d="M6.88132 8.40039L3.6001 15.6616H7.52818L8.01515 14.5039H9.12825L9.61522 15.6616H13.9389V14.778L14.3242 15.6616H16.5608L16.946 14.7593V15.6616H25.9382L27.0316 14.5339L28.0554 15.6616L32.674 15.671L29.3824 12.0513L32.674 8.40039H28.127L27.0627 9.50723L26.0711 8.40039H16.2888L15.4488 10.2746L14.5891 8.40039H10.6692V9.25395L10.2332 8.40039H6.88132ZM20.3093 9.4315H25.473L27.0523 11.1375L28.6826 9.4315H30.2619L27.8623 12.0503L30.2619 14.6388H28.6109L27.0316 12.913L25.393 14.6388H20.3093V9.4315ZM21.5844 11.4615V10.5094H24.8064L26.2123 12.0305L24.7441 13.56H21.5844V12.5216H24.4015V11.4615H21.5844ZM7.64138 9.4315H9.55611L11.7325 14.3554V9.4315H13.8301L15.5111 12.9619L17.0604 9.4315H19.1474V14.6419H17.8775L17.8671 10.5591L16.0157 14.6419H14.8797L13.018 10.5591V14.6419H10.4055L9.91018 13.4738H7.23436L6.74011 14.6409H5.34036L7.64138 9.4315ZM7.69126 12.394L8.57283 10.3131L9.45338 12.394H7.69126Z" fill="#1F72CD"/>
</svg>
