<svg width="12" height="14" viewBox="0 0 12 14" fill="none" xmlns="http://www.w3.org/2000/svg">
<path fill-rule="evenodd" clip-rule="evenodd" d="M0.558058 9.89155C0.31398 10.1356 0.31398 10.5314 0.558058 10.7754L3.05806 13.2754C3.30214 13.5195 3.69786 13.5195 3.94194 13.2754C4.18602 13.0314 4.18602 12.6356 3.94194 12.3916L2.50888 10.9585L11 10.9585C11.3452 10.9585 11.625 10.6787 11.625 10.3335C11.625 9.98832 11.3452 9.7085 11 9.7085L2.50888 9.7085L3.94194 8.27544C4.18602 8.03136 4.18602 7.63563 3.94194 7.39155C3.69786 7.14748 3.30214 7.14748 3.05806 7.39155L0.558058 9.89155ZM8.94194 6.60877L11.4419 4.10877C11.686 3.86469 11.686 3.46897 11.4419 3.22489L8.94194 0.724887C8.69786 0.480809 8.30214 0.480809 8.05806 0.724887C7.81398 0.968965 7.81398 1.36469 8.05806 1.60877L9.49112 3.04183L1 3.04183C0.654822 3.04183 0.375 3.32165 0.375 3.66683C0.375 4.01201 0.654822 4.29183 1 4.29183L9.49112 4.29183L8.05806 5.72489C7.81398 5.96896 7.81398 6.36469 8.05806 6.60877C8.30214 6.85285 8.69786 6.85285 8.94194 6.60877Z" fill="#131118"/>
</svg>
