<svg width="20" height="14" viewBox="0 0 20 14" fill="none" xmlns="http://www.w3.org/2000/svg">
<path d="M17.6087 5.21075C18.575 6.22748 18.575 7.77219 17.6087 8.78892C15.9788 10.5037 13.1797 12.8332 10.0001 12.8332C6.82049 12.8332 4.02133 10.5037 2.3915 8.78892C1.42516 7.77219 1.42516 6.22748 2.3915 5.21075C4.02132 3.49595 6.82049 1.1665 10.0001 1.1665C13.1797 1.1665 15.9788 3.49595 17.6087 5.21075Z" stroke="#131118" stroke-width="1.5"/>
<path d="M12.5001 6.99984C12.5001 8.38055 11.3808 9.49984 10.0001 9.49984C8.61937 9.49984 7.50008 8.38055 7.50008 6.99984C7.50008 5.61913 8.61937 4.49984 10.0001 4.49984C11.3808 4.49984 12.5001 5.61913 12.5001 6.99984Z" stroke="#131118" stroke-width="1.5"/>
</svg>
