<svg width="36" height="24" viewBox="0 0 36 24" fill="none" xmlns="http://www.w3.org/2000/svg">
<rect width="36" height="24" rx="2.4" fill="white"/>
<path fill-rule="evenodd" clip-rule="evenodd" d="M16.9533 14.9687V11.9417H18.5156C19.1558 11.9417 19.6962 11.7272 20.1367 11.3041L20.2424 11.1968C21.047 10.3209 20.9942 8.95639 20.1367 8.14601C19.7079 7.71699 19.1206 7.4846 18.5156 7.49652H16.0077V14.9687H16.9533ZM16.9534 11.024V8.41413H18.5395C18.8802 8.41413 19.2033 8.54522 19.4441 8.78357C19.9552 9.28409 19.9669 10.1183 19.4735 10.6367C19.2326 10.8929 18.8919 11.0359 18.5395 11.024H16.9534Z" fill="#3C4043"/>
<path fill-rule="evenodd" clip-rule="evenodd" d="M24.6532 10.2554C24.248 9.87998 23.6959 9.6893 22.997 9.6893C22.0984 9.6893 21.4229 10.023 20.9766 10.6844L21.8106 11.2147C22.116 10.7619 22.533 10.5354 23.0616 10.5354C23.3964 10.5354 23.7194 10.6606 23.9719 10.887C24.2186 11.1015 24.3596 11.4114 24.3596 11.7391V11.9596C23.9954 11.757 23.5373 11.6497 22.9735 11.6497C22.3157 11.6497 21.7871 11.8046 21.3936 12.1204C21.0001 12.4362 20.8004 12.8533 20.8004 13.3837C20.7886 13.8663 20.9942 14.3251 21.3583 14.635C21.7283 14.9687 22.1982 15.1355 22.7503 15.1355C23.4022 15.1355 23.9191 14.8435 24.3126 14.2596H24.3537V14.9687H25.2582V11.8165C25.2582 11.1551 25.0585 10.6308 24.6532 10.2554ZM22.0868 14.0272C21.8929 13.8842 21.7754 13.6518 21.7754 13.4015C21.7754 13.1215 21.9047 12.8891 22.1573 12.7044C22.4157 12.5197 22.7388 12.4243 23.1206 12.4243C23.6493 12.4184 24.0605 12.5375 24.3542 12.7759C24.3542 13.1811 24.1956 13.5326 23.8843 13.8306C23.6023 14.1166 23.2205 14.2775 22.8211 14.2775C22.5567 14.2834 22.2983 14.194 22.0868 14.0272Z" fill="#3C4043"/>
<path d="M27.2904 17.2151L30.4502 9.85615H29.4224L27.9599 13.5267H27.9423L26.4446 9.85615H25.4168L27.49 14.6409L26.3154 17.2151H27.2904Z" fill="#3C4043"/>
<path d="M13.6888 11.2862C13.6888 10.9942 13.6653 10.7023 13.6183 10.4163H9.63035V12.0668H11.9151C11.8211 12.5971 11.5157 13.0738 11.0693 13.3717V14.4443H12.4319C13.2307 13.6995 13.6888 12.5971 13.6888 11.2862Z" fill="#4285F4"/>
<path d="M9.63051 15.4811C10.7699 15.4811 11.733 15.0998 12.4319 14.4443L11.0693 13.3717C10.6875 13.6339 10.2002 13.7829 9.63051 13.7829C8.52634 13.7829 7.59249 13.0261 7.25771 12.0132H5.85399V13.1215C6.57053 14.5694 8.03298 15.4811 9.63051 15.4811Z" fill="#34A853"/>
<path d="M7.25771 12.0132C7.08148 11.4829 7.08164 10.9049 7.25787 10.3686V9.26625H5.85393C5.24889 10.4759 5.24889 11.9059 5.85393 13.1155L7.25771 12.0132Z" fill="#FBBC04"/>
<path d="M9.63051 8.59887C10.2355 8.58695 10.8169 8.81934 11.2515 9.2424L12.4614 8.01492C11.692 7.28796 10.6818 6.88873 9.63051 6.90065C8.03298 6.90065 6.57047 7.8183 5.85393 9.26625L7.25771 10.3745C7.59249 9.35562 8.52634 8.59887 9.63051 8.59887Z" fill="#EA4335"/>
</svg>
