<svg width="37" height="36" viewBox="0 0 37 36" fill="none" xmlns="http://www.w3.org/2000/svg">
<path d="M31.8333 24V27C31.8333 29.4853 29.8185 31.5 27.3333 31.5C24.848 31.5 22.8333 29.4853 22.8333 27V24C22.8333 21.5147 24.848 19.5 27.3333 19.5C29.8185 19.5 31.8333 21.5147 31.8333 24ZM31.8333 24V18C31.8333 10.5442 25.7891 4.5 18.3333 4.5C10.8774 4.5 4.83325 10.5442 4.83325 18V24M4.83325 24V27C4.83325 29.4853 6.84797 31.5 9.33325 31.5C11.8185 31.5 13.8333 29.4853 13.8333 27V24C13.8333 21.5147 11.8185 19.5 9.33325 19.5C6.84797 19.5 4.83325 21.5147 4.83325 24Z" stroke="#131118" stroke-width="2.25" stroke-linecap="square" stroke-linejoin="round"/>
</svg>
