<svg width="36" height="24" viewBox="0 0 36 24" fill="none" xmlns="http://www.w3.org/2000/svg">
<rect width="36" height="24" rx="2.4" fill="white"/>
<path d="M30 11.9168C30 16.0164 26.6833 19.3331 22.5837 19.3331C20.8532 19.3331 19.267 18.7357 18.0103 17.7468C19.7408 16.3872 20.8326 14.2859 20.8326 11.9168C20.8326 9.5477 19.7202 7.44641 18.0103 6.08676C19.267 5.09792 20.8532 4.50049 22.5837 4.50049C26.6833 4.50049 30 7.83783 30 11.9168Z" fill="#F79E1B"/>
<path d="M18.0103 6.08676C18.0103 6.08676 18.0103 6.08676 18.0103 6.08676C19.7202 7.44641 20.8326 9.5477 20.8326 11.9168C20.8326 14.2859 19.7408 16.3872 18.0103 17.7468L17.9896 17.7468C16.2798 16.4078 15.1674 14.2859 15.1674 11.9168C15.1674 9.54774 16.2798 7.44646 17.9897 6.0868C17.9897 6.08678 17.9897 6.08681 17.9897 6.0868L18.0103 6.08676Z" fill="#FF5F00"/>
<path d="M15.1674 11.9168C15.1674 9.54774 16.2798 7.44646 17.9897 6.0868C16.733 5.09796 15.1468 4.50052 13.4163 4.50052C9.31674 4.50052 6 7.81726 6 11.9168C6 16.0164 9.31674 19.3331 13.4163 19.3331C15.1468 19.3331 16.733 18.7357 17.9896 17.7468C16.2798 16.4078 15.1674 14.2859 15.1674 11.9168Z" fill="#EB001B"/>
</svg>
