<svg width="36" height="24" viewBox="0 0 36 24" fill="none" xmlns="http://www.w3.org/2000/svg">
<rect width="36" height="24" rx="2.4" fill="white"/>
<path fill-rule="evenodd" clip-rule="evenodd" d="M23.4894 8.23747C23.4749 8.33173 23.458 8.42806 23.4392 8.52705C22.7903 11.8718 20.5705 13.0273 17.7355 13.0273H16.292C15.9453 13.0273 15.6531 13.28 15.5991 13.6234L14.6508 19.6635C14.6156 19.8891 14.7887 20.0922 15.0153 20.0922H17.5755C17.8786 20.0922 18.1362 19.8711 18.1839 19.5709L18.209 19.4403L18.6911 16.3689L18.7221 16.2004C18.7693 15.8992 19.0274 15.6779 19.3305 15.6779H19.7134C22.1938 15.6779 24.1357 14.6668 24.7033 11.7407C24.9402 10.5184 24.8176 9.4977 24.1902 8.77989C24.0004 8.56348 23.7649 8.38381 23.4894 8.23747Z" fill="#298FC2"/>
<path fill-rule="evenodd" clip-rule="evenodd" d="M22.8104 7.96579C22.7112 7.93673 22.609 7.91047 22.5041 7.88672C22.3986 7.86356 22.2906 7.84306 22.1794 7.82506C21.7902 7.76192 21.3637 7.73198 20.9069 7.73198H17.0506C16.9556 7.73198 16.8654 7.75351 16.7847 7.79246C16.6068 7.87831 16.4747 8.04737 16.4427 8.25433L15.6223 13.4714L15.5988 13.6235C15.6527 13.2801 15.9449 13.0274 16.2917 13.0274H17.7352C20.5701 13.0274 22.79 11.8713 23.4388 8.52709C23.4582 8.42811 23.4745 8.33178 23.489 8.23752C23.3249 8.15004 23.1471 8.07525 22.9557 8.01152C22.9084 7.99574 22.8596 7.98054 22.8104 7.96579Z" fill="#22284F"/>
<path fill-rule="evenodd" clip-rule="evenodd" d="M16.4427 8.25433C16.4747 8.04737 16.607 7.87833 16.7849 7.79306C16.8662 7.75397 16.9558 7.73243 17.0508 7.73243H20.9071C21.3639 7.73243 21.7904 7.76253 22.1796 7.82566C22.2908 7.84351 22.3988 7.86416 22.5043 7.88732C22.6092 7.91093 22.7114 7.93733 22.8106 7.96625C22.8598 7.981 22.9086 7.99634 22.9563 8.01153C23.1478 8.07526 23.3257 8.15064 23.4898 8.23753C23.6829 7.00149 23.4882 6.15991 22.8226 5.39784C22.0888 4.55876 20.7644 4.19971 19.0697 4.19971H14.1496C13.8034 4.19971 13.5081 4.4524 13.4546 4.79641L11.4054 17.8388C11.365 18.0968 11.5632 18.3296 11.8224 18.3296H14.8598L16.4427 8.25433Z" fill="#28356A"/>
</svg>
