<svg width="0" height="0" class="hidden">
  <symbol fill="none" xmlns="http://www.w3.org/2000/svg" viewBox="0 0 36 24" id="amex">
    <rect width="36" height="24" rx="2.4" fill="white"></rect>
    <path fill-rule="evenodd" clip-rule="evenodd" d="M6.88132 8.40039L3.6001 15.6616H7.52818L8.01515 14.5039H9.12825L9.61522 15.6616H13.9389V14.778L14.3242 15.6616H16.5608L16.946 14.7593V15.6616H25.9382L27.0316 14.5339L28.0554 15.6616L32.674 15.671L29.3824 12.0513L32.674 8.40039H28.127L27.0627 9.50723L26.0711 8.40039H16.2888L15.4488 10.2746L14.5891 8.40039H10.6692V9.25395L10.2332 8.40039H6.88132ZM20.3093 9.4315H25.473L27.0523 11.1375L28.6826 9.4315H30.2619L27.8623 12.0503L30.2619 14.6388H28.6109L27.0316 12.913L25.393 14.6388H20.3093V9.4315ZM21.5844 11.4615V10.5094H24.8064L26.2123 12.0305L24.7441 13.56H21.5844V12.5216H24.4015V11.4615H21.5844ZM7.64138 9.4315H9.55611L11.7325 14.3554V9.4315H13.8301L15.5111 12.9619L17.0604 9.4315H19.1474V14.6419H17.8775L17.8671 10.5591L16.0157 14.6419H14.8797L13.018 10.5591V14.6419H10.4055L9.91018 13.4738H7.23436L6.74011 14.6409H5.34036L7.64138 9.4315ZM7.69126 12.394L8.57283 10.3131L9.45338 12.394H7.69126Z" fill="#1F72CD"></path>
  </symbol>
  <symbol fill="none" xmlns="http://www.w3.org/2000/svg" viewBox="0 0 14 10" id="arrow-left">
    <path fill-rule="evenodd" clip-rule="evenodd" d="M0.46967 4.46967C0.176777 4.76256 0.176777 5.23744 0.46967 5.53033L4.46967 9.53033C4.76256 9.82322 5.23744 9.82322 5.53033 9.53033C5.82322 9.23744 5.82322 8.76256 5.53033 8.46967L2.81066 5.75L13 5.75C13.4142 5.75 13.75 5.41421 13.75 5C13.75 4.58579 13.4142 4.25 13 4.25L2.81066 4.25L5.53033 1.53033C5.82322 1.23744 5.82322 0.762563 5.53033 0.46967C5.23744 0.176776 4.76256 0.176776 4.46967 0.46967L0.46967 4.46967Z" fill="#131118"></path>
  </symbol>
  <symbol fill="none" xmlns="http://www.w3.org/2000/svg" viewBox="0 0 14 10" id="arrow-right">
    <path fill-rule="evenodd" clip-rule="evenodd" d="M13.5303 4.46967C13.8232 4.76256 13.8232 5.23744 13.5303 5.53033L9.53033 9.53033C9.23744 9.82322 8.76256 9.82322 8.46967 9.53033C8.17678 9.23744 8.17678 8.76256 8.46967 8.46967L11.1893 5.75L1 5.75C0.585787 5.75 0.25 5.41421 0.25 5C0.25 4.58579 0.585787 4.25 1 4.25L11.1893 4.25L8.46967 1.53033C8.17678 1.23744 8.17678 0.762563 8.46967 0.46967C8.76256 0.176776 9.23744 0.176776 9.53033 0.46967L13.5303 4.46967Z" fill="white"></path>
  </symbol>
  <symbol fill="none" xmlns="http://www.w3.org/2000/svg" viewBox="0 0 36 36" id="box">
    <path d="M30 10.5L18 16.5L6 10.5" stroke="#131118" stroke-width="2.25" stroke-linecap="round" stroke-linejoin="round"></path>
    <path d="M27.9368 7.00142L20.4368 3.5374C18.8854 2.82086 17.1146 2.82087 15.5632 3.53741L8.06317 7.00143C5.8964 8.00219 4.5 10.2352 4.5 12.6993V23.3007C4.5 25.7648 5.8964 27.9978 8.06317 28.9986L15.5632 32.4626C17.1146 33.1791 18.8854 33.1791 20.4368 32.4626L27.9368 28.9986C30.1036 27.9978 31.5 25.7648 31.5 23.3007V12.6993C31.5 10.2352 30.1036 8.00219 27.9368 7.00142Z" stroke="#131118" stroke-width="2.25" stroke-linecap="round" stroke-linejoin="round"></path>
    <path d="M12 6L25.5 13.5V29.25" stroke="#131118" stroke-width="2.25" stroke-linecap="round" stroke-linejoin="round"></path>
    <path d="M18 16.5V33" stroke="#131118" stroke-width="2.25" stroke-linecap="round" stroke-linejoin="round"></path>
  </symbol>
  <symbol fill="none" xmlns="http://www.w3.org/2000/svg" viewBox="0 0 24 24" id="calling">
    <path d="M15 16L14.8529 16.7354C15.1846 16.8018 15.5196 16.6379 15.6708 16.3354L15 16ZM8 9L7.66459 8.32918C7.36208 8.48043 7.19824 8.81544 7.26456 9.14709L8 9ZM8.35402 8.82299L8.68943 9.49381L8.68943 9.49381L8.35402 8.82299ZM9.31654 6.29136L10.0129 6.01281L9.31654 6.29136ZM8.50289 4.25722L7.80653 4.53576L8.50289 4.25722ZM19.7428 15.4971L19.4642 16.1935L19.7428 15.4971ZM17.7086 14.6835L17.9872 13.9871H17.9872L17.7086 14.6835ZM15.177 15.646L15.8478 15.9814V15.9814L15.177 15.646ZM16.25 11C16.25 11.4142 16.5858 11.75 17 11.75C17.4142 11.75 17.75 11.4142 17.75 11H16.25ZM16.6955 9.46927L17.3884 9.18225L16.6955 9.46927ZM14.5307 7.30448L14.8177 6.61157L14.5307 7.30448ZM13 6.25C12.5858 6.25 12.25 6.58579 12.25 7C12.25 7.41421 12.5858 7.75 13 7.75V6.25ZM20.25 11C20.25 11.4142 20.5858 11.75 21 11.75C21.4142 11.75 21.75 11.4142 21.75 11H20.25ZM20.391 7.93853L21.0839 7.65152L20.391 7.93853ZM16.0615 3.60896L16.3485 2.91605V2.91605L16.0615 3.60896ZM13 2.25C12.5858 2.25 12.25 2.58579 12.25 3C12.25 3.41421 12.5858 3.75 13 3.75V2.25ZM20.25 17.3541V19H21.75V17.3541H20.25ZM5 3.75H6.64593V2.25H5V3.75ZM15 16C15.1471 15.2646 15.1473 15.2646 15.1475 15.2646C15.1476 15.2647 15.1477 15.2647 15.1479 15.2647C15.1481 15.2648 15.1483 15.2648 15.1484 15.2648C15.1487 15.2649 15.1488 15.2649 15.1488 15.2649C15.1488 15.2649 15.1482 15.2648 15.147 15.2645C15.1447 15.264 15.14 15.2631 15.1331 15.2615C15.1193 15.2585 15.0967 15.2533 15.0659 15.2459C15.0044 15.2309 14.9104 15.2066 14.7898 15.1711C14.5482 15.1 14.2016 14.9847 13.7954 14.8106C12.9796 14.461 11.9439 13.8833 11.0303 12.9697L9.96967 14.0303C11.0561 15.1167 12.2704 15.789 13.2046 16.1894C13.6734 16.3903 14.0768 16.525 14.3665 16.6101C14.5115 16.6528 14.6285 16.6832 14.7114 16.7034C14.7529 16.7135 14.7859 16.721 14.8097 16.7263C14.8217 16.7289 14.8313 16.7309 14.8385 16.7325C14.8421 16.7332 14.8451 16.7339 14.8475 16.7343C14.8487 16.7346 14.8498 16.7348 14.8507 16.735C14.8511 16.7351 14.8515 16.7352 14.8519 16.7352C14.8521 16.7353 14.8523 16.7353 14.8524 16.7353C14.8527 16.7354 14.8529 16.7354 15 16ZM11.0303 12.9697C10.1167 12.0561 9.53901 11.0204 9.18936 10.2046C9.01527 9.79836 8.89996 9.45184 8.8289 9.21025C8.79342 9.08962 8.76912 8.99565 8.75414 8.93406C8.74666 8.90329 8.74151 8.88065 8.73847 8.86687C8.73695 8.85999 8.73595 8.85532 8.73546 8.85296C8.73521 8.85178 8.73509 8.85118 8.73508 8.85117C8.73508 8.85116 8.73511 8.8513 8.73517 8.85159C8.7352 8.85174 8.73524 8.85192 8.73528 8.85214C8.7353 8.85225 8.73534 8.85244 8.73535 8.8525C8.73539 8.8527 8.73544 8.85291 8 9C7.26456 9.14709 7.26461 9.14732 7.26466 9.14756C7.26468 9.14765 7.26473 9.1479 7.26477 9.14809C7.26484 9.14846 7.26492 9.14887 7.26501 9.14932C7.2652 9.15022 7.26541 9.15127 7.26566 9.15247C7.26615 9.15488 7.26677 9.15789 7.26753 9.1615C7.26905 9.16873 7.27111 9.17834 7.27374 9.19026C7.279 9.21408 7.28655 9.2471 7.29664 9.28859C7.31682 9.37154 7.34721 9.48851 7.38985 9.6335C7.47504 9.92316 7.60973 10.3266 7.81064 10.7954C8.21099 11.7296 8.88325 12.9439 9.96967 14.0303L11.0303 12.9697ZM8.33541 9.67082L8.68943 9.49381L8.01861 8.15217L7.66459 8.32918L8.33541 9.67082ZM10.0129 6.01281L9.19925 3.97868L7.80653 4.53576L8.62018 6.5699L10.0129 6.01281ZM20.0213 14.8008L17.9872 13.9871L17.4301 15.3798L19.4642 16.1935L20.0213 14.8008ZM14.5062 15.3106L14.3292 15.6646L15.6708 16.3354L15.8478 15.9814L14.5062 15.3106ZM17.9872 13.9871C16.6592 13.4559 15.1458 14.0313 14.5062 15.3106L15.8478 15.9814C16.1386 15.3999 16.8265 15.1384 17.4301 15.3798L17.9872 13.9871ZM8.68943 9.49381C9.96868 8.85419 10.5441 7.34076 10.0129 6.01281L8.62018 6.5699C8.86163 7.17351 8.60008 7.86143 8.01861 8.15217L8.68943 9.49381ZM6.64593 3.75C7.15706 3.75 7.6167 4.06119 7.80653 4.53576L9.19925 3.97868C8.78162 2.93462 7.77042 2.25 6.64593 2.25V3.75ZM21.75 17.3541C21.75 16.2296 21.0654 15.2184 20.0213 14.8008L19.4642 16.1935C19.9388 16.3833 20.25 16.8429 20.25 17.3541H21.75ZM19 20.25C10.5777 20.25 3.75 13.4223 3.75 5H2.25C2.25 14.2508 9.74923 21.75 19 21.75V20.25ZM19 21.75C20.5188 21.75 21.75 20.5188 21.75 19H20.25C20.25 19.6904 19.6904 20.25 19 20.25V21.75ZM3.75 5C3.75 4.30964 4.30964 3.75 5 3.75V2.25C3.48122 2.25 2.25 3.48122 2.25 5H3.75ZM17.75 11C17.75 10.3762 17.6271 9.75855 17.3884 9.18225L16.0026 9.75628C16.1659 10.1506 16.25 10.5732 16.25 11H17.75ZM17.3884 9.18225C17.1497 8.60596 16.7998 8.08232 16.3588 7.64124L15.2981 8.7019C15.5999 9.00369 15.8393 9.36197 16.0026 9.75628L17.3884 9.18225ZM16.3588 7.64124C15.9177 7.20016 15.394 6.85028 14.8177 6.61157L14.2437 7.99739C14.638 8.16072 14.9963 8.40011 15.2981 8.7019L16.3588 7.64124ZM14.8177 6.61157C14.2415 6.37286 13.6238 6.25 13 6.25V7.75C13.4268 7.75 13.8494 7.83406 14.2437 7.99739L14.8177 6.61157ZM21.75 11C21.75 9.85093 21.5237 8.71312 21.0839 7.65152L19.6981 8.22554C20.0625 9.10516 20.25 10.0479 20.25 11H21.75ZM21.0839 7.65152C20.6442 6.58992 19.9997 5.62533 19.1872 4.81282L18.1265 5.87348C18.7997 6.5467 19.3338 7.34593 19.6981 8.22554L21.0839 7.65152ZM19.1872 4.81282C18.3747 4.0003 17.4101 3.35578 16.3485 2.91605L15.7745 4.30187C16.6541 4.66622 17.4533 5.20025 18.1265 5.87348L19.1872 4.81282ZM16.3485 2.91605C15.2869 2.47633 14.1491 2.25 13 2.25V3.75C13.9521 3.75 14.8948 3.93753 15.7745 4.30187L16.3485 2.91605Z" fill="white"></path>
  </symbol>
  <symbol fill="none" xmlns="http://www.w3.org/2000/svg" viewBox="0 0 36 36" id="card">
    <rect x="33" y="4.5" width="27" height="30" rx="6" transform="rotate(90 33 4.5)" stroke="#131118" stroke-width="2.25"></rect>
    <circle cx="9" cy="25.5" r="1.5" fill="#131118"></circle>
    <path d="M3 10.5L33 10.5L33 16.5L3 16.5L3 10.5Z" stroke="#131118" stroke-width="2.25" stroke-linecap="round" stroke-linejoin="round"></path>
  </symbol>
  <symbol fill="none" xmlns="http://www.w3.org/2000/svg" viewBox="0 0 24 24" id="cart">
    <path d="M9 6L9 7C9 8.65685 10.3431 10 12 10C13.6569 10 15 8.65685 15 7V6" stroke="#131118" stroke-width="1.5" stroke-linecap="round" stroke-linejoin="round"></path>
    <path d="M15.6115 3H8.38848C6.43313 3 4.76436 4.41365 4.44291 6.3424L2.77624 16.3424C2.36988 18.7805 4.25006 21 6.72182 21H17.2781C19.7499 21 21.6301 18.7805 21.2237 16.3424L19.557 6.3424C19.2356 4.41365 17.5668 3 15.6115 3Z" stroke="#131118" stroke-width="1.5" stroke-linejoin="round"></path>
  </symbol>
  <symbol fill="none" xmlns="http://www.w3.org/2000/svg" viewBox="0 0 37 36" id="dollar">
    <circle cx="18.6667" cy="18" r="15" stroke="#131118" stroke-width="2.25"></circle>
    <path d="M21.6667 15C21.6667 13.3431 20.3236 12 18.6667 12C17.0099 12 15.6667 13.3431 15.6667 15C15.6667 16.6569 17.0099 18 18.6667 18" stroke="#131118" stroke-width="2.25" stroke-linecap="round"></path>
    <path d="M18.6667 18C20.3236 18 21.6667 19.3431 21.6667 21C21.6667 22.6569 20.3236 24 18.6667 24C17.0099 24 15.6667 22.6569 15.6667 21" stroke="#131118" stroke-width="2.25" stroke-linecap="round"></path>
    <path d="M18.6667 9.75V12" stroke="#131118" stroke-width="2.25" stroke-linecap="round" stroke-linejoin="round"></path>
    <path d="M18.6667 24V26.25" stroke="#131118" stroke-width="2.25" stroke-linecap="round" stroke-linejoin="round"></path>
  </symbol>
  <symbol fill="none" xmlns="http://www.w3.org/2000/svg" viewBox="0 0 12 14" id="double-arrows">
    <path fill-rule="evenodd" clip-rule="evenodd" d="M0.558058 9.89155C0.31398 10.1356 0.31398 10.5314 0.558058 10.7754L3.05806 13.2754C3.30214 13.5195 3.69786 13.5195 3.94194 13.2754C4.18602 13.0314 4.18602 12.6356 3.94194 12.3916L2.50888 10.9585L11 10.9585C11.3452 10.9585 11.625 10.6787 11.625 10.3335C11.625 9.98832 11.3452 9.7085 11 9.7085L2.50888 9.7085L3.94194 8.27544C4.18602 8.03136 4.18602 7.63563 3.94194 7.39155C3.69786 7.14748 3.30214 7.14748 3.05806 7.39155L0.558058 9.89155ZM8.94194 6.60877L11.4419 4.10877C11.686 3.86469 11.686 3.46897 11.4419 3.22489L8.94194 0.724887C8.69786 0.480809 8.30214 0.480809 8.05806 0.724887C7.81398 0.968965 7.81398 1.36469 8.05806 1.60877L9.49112 3.04183L1 3.04183C0.654822 3.04183 0.375 3.32165 0.375 3.66683C0.375 4.01201 0.654822 4.29183 1 4.29183L9.49112 4.29183L8.05806 5.72489C7.81398 5.96896 7.81398 6.36469 8.05806 6.60877C8.30214 6.85285 8.69786 6.85285 8.94194 6.60877Z" fill="#131118"></path>
  </symbol>
  <symbol fill="none" xmlns="http://www.w3.org/2000/svg" viewBox="0 0 24 25" id="down">
    <path d="M7 10.5L12 14.5L17 10.5" stroke="#131118" stroke-width="1.5" stroke-linecap="round" stroke-linejoin="round"></path>
  </symbol>
  <symbol fill="none" xmlns="http://www.w3.org/2000/svg" viewBox="0 0 20 14" id="eye">
    <path d="M17.6087 5.21075C18.575 6.22748 18.575 7.77219 17.6087 8.78892C15.9788 10.5037 13.1797 12.8332 10.0001 12.8332C6.82049 12.8332 4.02133 10.5037 2.3915 8.78892C1.42516 7.77219 1.42516 6.22748 2.3915 5.21075C4.02132 3.49595 6.82049 1.1665 10.0001 1.1665C13.1797 1.1665 15.9788 3.49595 17.6087 5.21075Z" stroke="#131118" stroke-width="1.5"></path>
    <path d="M12.5001 6.99984C12.5001 8.38055 11.3808 9.49984 10.0001 9.49984C8.61937 9.49984 7.50008 8.38055 7.50008 6.99984C7.50008 5.61913 8.61937 4.49984 10.0001 4.49984C11.3808 4.49984 12.5001 5.61913 12.5001 6.99984Z" stroke="#131118" stroke-width="1.5"></path>
  </symbol>
  <symbol fill="none" xmlns="http://www.w3.org/2000/svg" viewBox="0 0 24 24" id="facebook">
    <path d="M18 3H15C12.2386 3 10 5.23858 10 8V10H6V14H10V21H14V14H18V10H14V8C14 7.44772 14.4477 7 15 7H18V3Z" fill="white"></path>
  </symbol>
  <symbol fill="none" xmlns="http://www.w3.org/2000/svg" viewBox="0 0 24 24" id="gmail">
    <rect x="2" y="3" width="20" height="18" rx="4" stroke="white" stroke-width="1.5"></rect>
    <path d="M2 7L9.50122 13.001C10.9621 14.1697 13.0379 14.1697 14.4988 13.001L22 7" stroke="white" stroke-width="1.5" stroke-linecap="round" stroke-linejoin="round"></path>
  </symbol>
  <symbol fill="none" xmlns="http://www.w3.org/2000/svg" viewBox="0 0 36 24" id="gpay">
    <rect width="36" height="24" rx="2.4" fill="white"></rect>
    <path fill-rule="evenodd" clip-rule="evenodd" d="M16.9533 14.9687V11.9417H18.5156C19.1558 11.9417 19.6962 11.7272 20.1367 11.3041L20.2424 11.1968C21.047 10.3209 20.9942 8.95639 20.1367 8.14601C19.7079 7.71699 19.1206 7.4846 18.5156 7.49652H16.0077V14.9687H16.9533ZM16.9534 11.024V8.41413H18.5395C18.8802 8.41413 19.2033 8.54522 19.4441 8.78357C19.9552 9.28409 19.9669 10.1183 19.4735 10.6367C19.2326 10.8929 18.8919 11.0359 18.5395 11.024H16.9534Z" fill="#3C4043"></path>
    <path fill-rule="evenodd" clip-rule="evenodd" d="M24.6532 10.2554C24.248 9.87998 23.6959 9.6893 22.997 9.6893C22.0984 9.6893 21.4229 10.023 20.9766 10.6844L21.8106 11.2147C22.116 10.7619 22.533 10.5354 23.0616 10.5354C23.3964 10.5354 23.7194 10.6606 23.9719 10.887C24.2186 11.1015 24.3596 11.4114 24.3596 11.7391V11.9596C23.9954 11.757 23.5373 11.6497 22.9735 11.6497C22.3157 11.6497 21.7871 11.8046 21.3936 12.1204C21.0001 12.4362 20.8004 12.8533 20.8004 13.3837C20.7886 13.8663 20.9942 14.3251 21.3583 14.635C21.7283 14.9687 22.1982 15.1355 22.7503 15.1355C23.4022 15.1355 23.9191 14.8435 24.3126 14.2596H24.3537V14.9687H25.2582V11.8165C25.2582 11.1551 25.0585 10.6308 24.6532 10.2554ZM22.0868 14.0272C21.8929 13.8842 21.7754 13.6518 21.7754 13.4015C21.7754 13.1215 21.9047 12.8891 22.1573 12.7044C22.4157 12.5197 22.7388 12.4243 23.1206 12.4243C23.6493 12.4184 24.0605 12.5375 24.3542 12.7759C24.3542 13.1811 24.1956 13.5326 23.8843 13.8306C23.6023 14.1166 23.2205 14.2775 22.8211 14.2775C22.5567 14.2834 22.2983 14.194 22.0868 14.0272Z" fill="#3C4043"></path>
    <path d="M27.2904 17.2151L30.4502 9.85615H29.4224L27.9599 13.5267H27.9423L26.4446 9.85615H25.4168L27.49 14.6409L26.3154 17.2151H27.2904Z" fill="#3C4043"></path>
    <path d="M13.6888 11.2862C13.6888 10.9942 13.6653 10.7023 13.6183 10.4163H9.63035V12.0668H11.9151C11.8211 12.5971 11.5157 13.0738 11.0693 13.3717V14.4443H12.4319C13.2307 13.6995 13.6888 12.5971 13.6888 11.2862Z" fill="#4285F4"></path>
    <path d="M9.63051 15.4811C10.7699 15.4811 11.733 15.0998 12.4319 14.4443L11.0693 13.3717C10.6875 13.6339 10.2002 13.7829 9.63051 13.7829C8.52634 13.7829 7.59249 13.0261 7.25771 12.0132H5.85399V13.1215C6.57053 14.5694 8.03298 15.4811 9.63051 15.4811Z" fill="#34A853"></path>
    <path d="M7.25771 12.0132C7.08148 11.4829 7.08164 10.9049 7.25787 10.3686V9.26625H5.85393C5.24889 10.4759 5.24889 11.9059 5.85393 13.1155L7.25771 12.0132Z" fill="#FBBC04"></path>
    <path d="M9.63051 8.59887C10.2355 8.58695 10.8169 8.81934 11.2515 9.2424L12.4614 8.01492C11.692 7.28796 10.6818 6.88873 9.63051 6.90065C8.03298 6.90065 6.57047 7.8183 5.85393 9.26625L7.25771 10.3745C7.59249 9.35562 8.52634 8.59887 9.63051 8.59887Z" fill="#EA4335"></path>
  </symbol>
  <symbol fill="none" xmlns="http://www.w3.org/2000/svg" viewBox="0 0 37 36" id="headphones">
    <path d="M31.8333 24V27C31.8333 29.4853 29.8185 31.5 27.3333 31.5C24.848 31.5 22.8333 29.4853 22.8333 27V24C22.8333 21.5147 24.848 19.5 27.3333 19.5C29.8185 19.5 31.8333 21.5147 31.8333 24ZM31.8333 24V18C31.8333 10.5442 25.7891 4.5 18.3333 4.5C10.8774 4.5 4.83325 10.5442 4.83325 18V24M4.83325 24V27C4.83325 29.4853 6.84797 31.5 9.33325 31.5C11.8185 31.5 13.8333 29.4853 13.8333 27V24C13.8333 21.5147 11.8185 19.5 9.33325 19.5C6.84797 19.5 4.83325 21.5147 4.83325 24Z" stroke="#131118" stroke-width="2.25" stroke-linecap="square" stroke-linejoin="round"></path>
  </symbol>
  <symbol fill="none" xmlns="http://www.w3.org/2000/svg" viewBox="0 0 22 20" id="heart">
    <path d="M11.765 2.70229L11 3.52422L10.235 2.70229C8.12233 0.432572 4.69709 0.43257 2.58447 2.70229C0.471845 4.972 0.471844 8.65194 2.58447 10.9217L9.4699 18.3191C10.315 19.227 11.685 19.227 12.5301 18.3191L19.4155 10.9217C21.5282 8.65194 21.5282 4.972 19.4155 2.70229C17.3029 0.432571 13.8777 0.432571 11.765 2.70229Z" stroke="#131118" stroke-width="1.5" stroke-linejoin="round"></path>
  </symbol>
  <symbol fill="none" xmlns="http://www.w3.org/2000/svg" viewBox="0 0 24 24" id="instagram">
    <rect x="2" y="2" width="20" height="20" rx="4" stroke="white" stroke-width="1.5"></rect>
    <circle cx="18" cy="6" r="1" fill="white"></circle>
    <circle cx="12" cy="12" r="5" stroke="white" stroke-width="1.5"></circle>
  </symbol>
  <symbol fill="none" xmlns="http://www.w3.org/2000/svg" viewBox="0 0 24 24" id="location">
    <circle cx="12" cy="11" r="3" stroke="white" stroke-width="1.5"></circle>
    <path d="M21 10.8889C21 15.7981 15.375 22 12 22C8.625 22 3 15.7981 3 10.8889C3 5.97969 7.02944 2 12 2C16.9706 2 21 5.97969 21 10.8889Z" stroke="white" stroke-width="1.5"></path>
  </symbol>
  <symbol fill="none" xmlns="http://www.w3.org/2000/svg" viewBox="0 0 36 24" id="master">
    <rect width="36" height="24" rx="2.4" fill="white"></rect>
    <path d="M30 11.9168C30 16.0164 26.6833 19.3331 22.5837 19.3331C20.8532 19.3331 19.267 18.7357 18.0103 17.7468C19.7408 16.3872 20.8326 14.2859 20.8326 11.9168C20.8326 9.5477 19.7202 7.44641 18.0103 6.08676C19.267 5.09792 20.8532 4.50049 22.5837 4.50049C26.6833 4.50049 30 7.83783 30 11.9168Z" fill="#F79E1B"></path>
    <path d="M18.0103 6.08676C18.0103 6.08676 18.0103 6.08676 18.0103 6.08676C19.7202 7.44641 20.8326 9.5477 20.8326 11.9168C20.8326 14.2859 19.7408 16.3872 18.0103 17.7468L17.9896 17.7468C16.2798 16.4078 15.1674 14.2859 15.1674 11.9168C15.1674 9.54774 16.2798 7.44646 17.9897 6.0868C17.9897 6.08678 17.9897 6.08681 17.9897 6.0868L18.0103 6.08676Z" fill="#FF5F00"></path>
    <path d="M15.1674 11.9168C15.1674 9.54774 16.2798 7.44646 17.9897 6.0868C16.733 5.09796 15.1468 4.50052 13.4163 4.50052C9.31674 4.50052 6 7.81726 6 11.9168C6 16.0164 9.31674 19.3331 13.4163 19.3331C15.1468 19.3331 16.733 18.7357 17.9896 17.7468C16.2798 16.4078 15.1674 14.2859 15.1674 11.9168Z" fill="#EB001B"></path>
  </symbol>
  <symbol fill="none" xmlns="http://www.w3.org/2000/svg" viewBox="0 0 36 24" id="paypal">
    <rect width="36" height="24" rx="2.4" fill="white"></rect>
    <path fill-rule="evenodd" clip-rule="evenodd" d="M23.4894 8.23747C23.4749 8.33173 23.458 8.42806 23.4392 8.52705C22.7903 11.8718 20.5705 13.0273 17.7355 13.0273H16.292C15.9453 13.0273 15.6531 13.28 15.5991 13.6234L14.6508 19.6635C14.6156 19.8891 14.7887 20.0922 15.0153 20.0922H17.5755C17.8786 20.0922 18.1362 19.8711 18.1839 19.5709L18.209 19.4403L18.6911 16.3689L18.7221 16.2004C18.7693 15.8992 19.0274 15.6779 19.3305 15.6779H19.7134C22.1938 15.6779 24.1357 14.6668 24.7033 11.7407C24.9402 10.5184 24.8176 9.4977 24.1902 8.77989C24.0004 8.56348 23.7649 8.38381 23.4894 8.23747Z" fill="#298FC2"></path>
    <path fill-rule="evenodd" clip-rule="evenodd" d="M22.8104 7.96579C22.7112 7.93673 22.609 7.91047 22.5041 7.88672C22.3986 7.86356 22.2906 7.84306 22.1794 7.82506C21.7902 7.76192 21.3637 7.73198 20.9069 7.73198H17.0506C16.9556 7.73198 16.8654 7.75351 16.7847 7.79246C16.6068 7.87831 16.4747 8.04737 16.4427 8.25433L15.6223 13.4714L15.5988 13.6235C15.6527 13.2801 15.9449 13.0274 16.2917 13.0274H17.7352C20.5701 13.0274 22.79 11.8713 23.4388 8.52709C23.4582 8.42811 23.4745 8.33178 23.489 8.23752C23.3249 8.15004 23.1471 8.07525 22.9557 8.01152C22.9084 7.99574 22.8596 7.98054 22.8104 7.96579Z" fill="#22284F"></path>
    <path fill-rule="evenodd" clip-rule="evenodd" d="M16.4427 8.25433C16.4747 8.04737 16.607 7.87833 16.7849 7.79306C16.8662 7.75397 16.9558 7.73243 17.0508 7.73243H20.9071C21.3639 7.73243 21.7904 7.76253 22.1796 7.82566C22.2908 7.84351 22.3988 7.86416 22.5043 7.88732C22.6092 7.91093 22.7114 7.93733 22.8106 7.96625C22.8598 7.981 22.9086 7.99634 22.9563 8.01153C23.1478 8.07526 23.3257 8.15064 23.4898 8.23753C23.6829 7.00149 23.4882 6.15991 22.8226 5.39784C22.0888 4.55876 20.7644 4.19971 19.0697 4.19971H14.1496C13.8034 4.19971 13.5081 4.4524 13.4546 4.79641L11.4054 17.8388C11.365 18.0968 11.5632 18.3296 11.8224 18.3296H14.8598L16.4427 8.25433Z" fill="#28356A"></path>
  </symbol>
  <symbol fill="none" xmlns="http://www.w3.org/2000/svg" viewBox="0 0 22 22" id="search">
    <path fill-rule="evenodd" clip-rule="evenodd" d="M1.75 10.5C1.75 15.3325 5.66751 19.25 10.5 19.25C15.3325 19.25 19.25 15.3325 19.25 10.5C19.25 5.66751 15.3325 1.75 10.5 1.75C5.66751 1.75 1.75 5.66751 1.75 10.5ZM10.5 20.75C4.83908 20.75 0.25 16.1609 0.25 10.5C0.25 4.83908 4.83908 0.25 10.5 0.25C16.1609 0.25 20.75 4.83908 20.75 10.5C20.75 13.0605 19.8111 15.4017 18.2589 17.1982L21.5303 20.4697C21.8232 20.7626 21.8232 21.2374 21.5303 21.5303C21.2374 21.8232 20.7626 21.8232 20.4697 21.5303L17.1982 18.2589C15.4017 19.8111 13.0605 20.75 10.5 20.75Z" fill="#131118"></path>
  </symbol>
  <symbol fill="none" xmlns="http://www.w3.org/2000/svg" viewBox="0 0 20 20" id="star">
    <path d="M8.36076 2.72601C9.03133 1.31334 10.9688 1.31333 11.6394 2.72601L12.7983 5.16749C13.0646 5.72846 13.5793 6.11728 14.1748 6.20724L16.7662 6.59875C18.2656 6.82528 18.8644 8.74112 17.7794 9.84074L15.9042 11.7412C15.4733 12.1778 15.2767 12.807 15.3784 13.4235L15.8211 16.107C16.0772 17.6596 14.5098 18.8437 13.1686 18.1106L10.8508 16.8437C10.3182 16.5526 9.68196 16.5526 9.14939 16.8437L6.83155 18.1106C5.49041 18.8437 3.92293 17.6596 4.17907 16.107L4.62174 13.4235C4.72345 12.807 4.52684 12.1778 4.09598 11.7412L2.22081 9.84074C1.1358 8.74112 1.73452 6.82528 3.23397 6.59875L5.82539 6.20724C6.42082 6.11728 6.93555 5.72846 7.20184 5.16749L8.36076 2.72601Z" stroke="#131118" stroke-width="1.5" stroke-linejoin="round"></path>
  </symbol>
  <symbol fill="none" xmlns="http://www.w3.org/2000/svg" viewBox="0 0 24 24" id="twitter">
    <path d="M15.2859 4C13.1821 4 11.4766 5.79086 11.4766 8C11.4766 8.33382 11.5155 8.65809 11.5889 8.96808C9.56599 8.96808 6.51902 8.55908 3.97432 6.00961C3.63593 5.67059 3.01196 5.89726 3.03543 6.37567C3.41256 14.0627 6.70465 16.3049 8.39998 16.4444C7.30523 17.5257 5.71498 18.3791 4.11477 18.7622C3.69244 18.8633 3.58811 19.3256 4.00108 19.4599C5.14611 19.8323 6.78504 19.9758 7.66723 20C13.9081 20 18.9805 14.7471 19.0934 8.22229C19.9127 7.68945 20.4376 6.5325 20.7325 5.71291C20.8043 5.5133 20.4772 5.28073 20.2813 5.36226C19.6693 5.61708 18.8922 5.67749 18.2303 5.46181C17.5316 4.56927 16.4721 4 15.2859 4Z" fill="white"></path>
  </symbol>
  <symbol fill="none" xmlns="http://www.w3.org/2000/svg" viewBox="0 0 36 24" id="visa">
    <rect width="36" height="24" rx="2.4" fill="white"></rect>
    <path d="M24.3739 7.86964C23.9305 7.69373 23.2273 7.49951 22.3577 7.49951C20.1378 7.49951 18.5745 8.68329 18.5649 10.3757C18.5465 11.6244 19.6842 12.318 20.5351 12.7343C21.4048 13.1598 21.7004 13.4374 21.7004 13.8167C21.6916 14.3991 20.9976 14.6676 20.3504 14.6676C19.453 14.6676 18.9721 14.5292 18.2413 14.2051L17.9453 14.0662L17.6307 16.0178C18.1579 16.258 19.1293 16.4711 20.1378 16.4805C22.4965 16.4805 24.0321 15.315 24.0503 13.5114C24.0592 12.5218 23.4585 11.7634 22.1634 11.1438C21.3771 10.746 20.8956 10.4778 20.8956 10.0708C20.9048 9.70075 21.3029 9.32176 22.1904 9.32176C22.9212 9.3032 23.4581 9.47886 23.8649 9.65465L24.0682 9.74696L24.3739 7.86964Z" fill="#3362AB"></path>
    <path d="M16.2249 16.3509H13.977L15.383 7.6571H17.6308L16.2249 16.3509Z" fill="#3362AB"></path>
    <path fill-rule="evenodd" clip-rule="evenodd" d="M30.1364 7.6571H28.3976C27.8614 7.6571 27.4541 7.8142 27.2227 8.37843L23.8837 16.3508H26.2424C26.2424 16.3508 26.6307 15.2778 26.7142 15.0467H29.6003C29.6649 15.3519 29.8686 16.3508 29.8686 16.3508H31.9499L30.1364 7.6571ZM27.3616 13.271C27.5468 12.7716 28.2591 10.8385 28.2591 10.8385C28.2554 10.846 28.2843 10.7657 28.3275 10.6459L28.328 10.6445L28.3284 10.6435C28.3929 10.4646 28.4887 10.1991 28.5549 10.0062L28.712 10.7553C28.712 10.7553 29.1377 12.8363 29.2301 13.271H27.3616Z" fill="#3362AB"></path>
    <path d="M12.0994 7.6571L9.89793 13.5855L9.65737 12.3831L9.65715 12.3824L8.87113 8.3879C8.74169 7.83264 8.3439 7.67542 7.85367 7.6571H4.23695L4.19995 7.83276C5.08206 8.05833 5.87102 8.38338 6.56231 8.78754L8.56591 16.3417H10.943L14.4764 7.6571H12.0994Z" fill="#3362AB"></path>
  </symbol>
</svg>