<svg width="20" height="20" viewBox="0 0 20 20" fill="none" xmlns="http://www.w3.org/2000/svg">
<path d="M8.36076 2.72601C9.03133 1.31334 10.9688 1.31333 11.6394 2.72601L12.7983 5.16749C13.0646 5.72846 13.5793 6.11728 14.1748 6.20724L16.7662 6.59875C18.2656 6.82528 18.8644 8.74112 17.7794 9.84074L15.9042 11.7412C15.4733 12.1778 15.2767 12.807 15.3784 13.4235L15.8211 16.107C16.0772 17.6596 14.5098 18.8437 13.1686 18.1106L10.8508 16.8437C10.3182 16.5526 9.68196 16.5526 9.14939 16.8437L6.83155 18.1106C5.49041 18.8437 3.92293 17.6596 4.17907 16.107L4.62174 13.4235C4.72345 12.807 4.52684 12.1778 4.09598 11.7412L2.22081 9.84074C1.1358 8.74112 1.73452 6.82528 3.23397 6.59875L5.82539 6.20724C6.42082 6.11728 6.93555 5.72846 7.20184 5.16749L8.36076 2.72601Z" stroke="#131118" stroke-width="1.5" stroke-linejoin="round"/>
</svg>
