<svg width="36" height="24" viewBox="0 0 36 24" fill="none" xmlns="http://www.w3.org/2000/svg">
<rect width="36" height="24" rx="2.4" fill="white"/>
<path d="M24.3739 7.86964C23.9305 7.69373 23.2273 7.49951 22.3577 7.49951C20.1378 7.49951 18.5745 8.68329 18.5649 10.3757C18.5465 11.6244 19.6842 12.318 20.5351 12.7343C21.4048 13.1598 21.7004 13.4374 21.7004 13.8167C21.6916 14.3991 20.9976 14.6676 20.3504 14.6676C19.453 14.6676 18.9721 14.5292 18.2413 14.2051L17.9453 14.0662L17.6307 16.0178C18.1579 16.258 19.1293 16.4711 20.1378 16.4805C22.4965 16.4805 24.0321 15.315 24.0503 13.5114C24.0592 12.5218 23.4585 11.7634 22.1634 11.1438C21.3771 10.746 20.8956 10.4778 20.8956 10.0708C20.9048 9.70075 21.3029 9.32176 22.1904 9.32176C22.9212 9.3032 23.4581 9.47886 23.8649 9.65465L24.0682 9.74696L24.3739 7.86964Z" fill="#3362AB"/>
<path d="M16.2249 16.3509H13.977L15.383 7.6571H17.6308L16.2249 16.3509Z" fill="#3362AB"/>
<path fill-rule="evenodd" clip-rule="evenodd" d="M30.1364 7.6571H28.3976C27.8614 7.6571 27.4541 7.8142 27.2227 8.37843L23.8837 16.3508H26.2424C26.2424 16.3508 26.6307 15.2778 26.7142 15.0467H29.6003C29.6649 15.3519 29.8686 16.3508 29.8686 16.3508H31.9499L30.1364 7.6571ZM27.3616 13.271C27.5468 12.7716 28.2591 10.8385 28.2591 10.8385C28.2554 10.846 28.2843 10.7657 28.3275 10.6459L28.328 10.6445L28.3284 10.6435C28.3929 10.4646 28.4887 10.1991 28.5549 10.0062L28.712 10.7553C28.712 10.7553 29.1377 12.8363 29.2301 13.271H27.3616Z" fill="#3362AB"/>
<path d="M12.0994 7.6571L9.89793 13.5855L9.65737 12.3831L9.65715 12.3824L8.87113 8.3879C8.74169 7.83264 8.3439 7.67542 7.85367 7.6571H4.23695L4.19995 7.83276C5.08206 8.05833 5.87102 8.38338 6.56231 8.78754L8.56591 16.3417H10.943L14.4764 7.6571H12.0994Z" fill="#3362AB"/>
</svg>
